<svg xmlns="http://www.w3.org/2000/svg" width="100" height="100" viewBox="0 0 100 100" fill="none">
  <defs>
    <linearGradient id="flowdrop-liquid" x1="18%" y1="12%" x2="82%" y2="88%">
      <stop offset="0%" stop-color="#6AA8FF" />
      <stop offset="55%" stop-color="#4D8EF5" />
      <stop offset="100%" stop-color="#2E74DD" />
    </linearGradient>
    <filter id="flowdrop-glow" x="10" y="8" width="80" height="82" filterUnits="userSpaceOnUse" color-interpolation-filters="sRGB">
      <feGaussianBlur stdDeviation="3" />
    </filter>
  </defs>
  <path d="M50 14C31 14 16 29 16 48C16 72 50 84 50 84C50 84 84 72 84 48C84 29 69 14 50 14Z" fill="url(#flowdrop-liquid)" />
  <path d="M50 14C31 14 16 29 16 48C16 72 50 84 50 84C50 84 84 72 84 48C84 29 69 14 50 14Z" fill="url(#flowdrop-liquid)" filter="url(#flowdrop-glow)" opacity=".45" />
  <ellipse cx="39" cy="31" rx="12" ry="15" fill="#fff" opacity=".34" />
  <circle cx="50" cy="44" r="8" fill="#A8CCFF" opacity=".7" />
</svg>
